<svg width="109" height="94" viewBox="0 0 109 94" fill="none" xmlns="http://www.w3.org/2000/svg">
<g clip-path="url(#clip0_30_28)">
<path d="M103.558 92.8441L79.9437 76.9884L56.3024 92.8441C55.7885 93.1983 55.154 93.4085 54.465 93.4085C53.7759 93.4085 53.1414 93.1983 52.6197 92.8363L52.6314 92.8441L29.0096 76.9884L5.39161 92.8441C4.86026 93.2053 4.23426 93.402 3.59177 93.4097C2.94929 93.4173 2.3188 93.2354 1.77904 92.8869L1.79071 92.8947C1.23848 92.5155 0.786868 92.0076 0.474877 91.4148C0.162885 90.822 -9.97407e-05 90.1622 4.57925e-08 89.4923V89.4106V20.9936C4.57925e-08 19.6233 0.673464 18.4126 1.70896 17.673L1.72064 17.6652L27.1838 0.56776C27.6977 0.21351 28.3322 0.0032959 29.0212 0.0032959C29.7103 0.0032959 30.3448 0.21351 30.8665 0.575546L30.8548 0.56776L54.4689 16.4234L78.0868 0.56776C78.6007 0.21351 79.2352 0.0032959 79.9242 0.0032959C80.6133 0.0032959 81.2478 0.21351 81.7695 0.575546L81.7578 0.56776L107.221 17.6652C108.256 18.4009 108.926 19.5999 108.926 20.9508L108.922 21.0987V21.0909V89.5312C108.922 90.9366 108.214 92.1745 107.135 92.9141L107.12 92.9219C106.597 93.2567 105.989 93.4337 105.368 93.4319C104.711 93.4193 104.072 93.2135 103.531 92.8402L103.542 92.8479L103.558 92.8441ZM7.78571 23.5745V82.3606L25.0544 70.3472V11.5612L7.78571 23.5745ZM58.3656 82.1426L76.117 70.2227V43.6617C75.9457 43.833 75.8056 44.0004 75.6577 44.1717C75.2191 44.6855 74.7805 45.1877 74.3419 45.6782L71.4222 43.1011C71.8375 42.6184 72.267 42.124 72.7108 41.6179C73.392 40.8627 74.0733 40.0608 74.8051 39.2589L76.0937 40.4267V11.4366L58.3384 23.3565V50.6727C58.9057 50.6427 59.471 50.5816 60.0317 50.4898L59.9422 50.5014L60.5651 54.3437C59.8791 54.4426 59.1895 54.5153 58.498 54.5617H58.3773L58.3656 82.1426ZM32.8285 70.2499L50.5799 82.1426V50.4508L49.56 53.5651C47.7553 52.9766 46.0335 52.1589 44.437 51.1321L44.5226 51.1827L46.5897 47.8738C47.7381 48.6173 49.0539 49.2674 50.4475 49.754L50.5799 49.7929V23.3527L32.8285 11.4366V35.9772C33.9807 36.5884 34.9501 37.1918 35.8766 37.8574L35.7987 37.8029L33.537 40.9639C33.319 40.7927 33.0776 40.6525 32.8324 40.4773L32.8285 70.2499ZM86.6005 36.1251C85.6421 36.3305 84.7079 36.6358 83.8132 37.036L83.9027 37.001V70.3823L101.144 82.1387V23.3332L83.8755 11.5262V32.8084C84.3777 32.6371 85.0317 32.4619 85.6973 32.3218L85.8219 32.2984L86.6005 36.1251ZM64.275 49.1584C65.7153 48.4421 66.9571 47.5818 68.0588 46.5697L68.0471 46.5813L70.6242 49.501C69.262 50.7376 67.7375 51.7827 66.0929 52.6075L65.9761 52.662L64.275 49.1584ZM37.3247 44.7828C37.1067 44.4909 36.8654 44.2223 36.6201 43.9342L39.5865 41.4038L40.3144 42.2797C41.1631 43.2763 41.9416 44.2262 42.8059 45.0826L40.1315 47.9049C39.1558 46.9397 38.2319 45.9235 37.3636 44.8607L37.3091 44.7906L37.3247 44.7828ZM12.4922 45.7171L12.5428 45.5225C13.0722 43.6267 13.8391 41.9722 14.824 40.4734L14.7812 40.5396L17.9928 42.7196C17.2609 43.868 16.6692 45.1955 16.2877 46.6125L16.2644 46.7137L16.1943 46.9317L12.4922 45.7171ZM93.8724 37.7601L91.3809 40.2905L88.6092 37.5188L91.1396 35.0273L88.6092 32.5359L91.3809 29.7642L93.8724 32.2945L96.3638 29.7642L99.1355 32.5359L96.6051 35.0273L99.1355 37.5188L96.3638 40.2905L93.8724 37.7601ZM17.5062 37.0983C18.3157 36.3305 19.2165 35.665 20.1884 35.1169L20.2584 35.0818C20.9163 34.7198 21.691 34.3811 22.4929 34.1125L22.5902 34.0853L23.7815 37.7835C23.1975 37.9548 24.0734 37.9314 23.5401 38.2234C22.2399 38.7372 21.1265 39.3173 20.0832 39.9985L20.1572 39.9518L17.5062 37.0983Z" fill="#F8F8FF"/>
</g>
<defs>
<clipPath id="clip0_30_28">
<rect width="109" height="93.4286" fill="white"/>
</clipPath>
</defs>
</svg>
