<svg width="112" height="112" viewBox="0 0 112 112" fill="none" xmlns="http://www.w3.org/2000/svg">
<path d="M30.6367 91.28C29.3241 92.5932 27.5437 93.3312 25.687 93.3316C23.8303 93.332 22.0495 92.5949 20.7363 91.2823C19.4232 89.9698 18.6852 88.1893 18.6847 86.3327C18.6843 84.476 19.4214 82.6952 20.734 81.382C21.3842 80.7318 22.1561 80.216 23.0057 79.8641C23.8552 79.5122 24.7658 79.3311 25.6853 79.3311C26.6049 79.3311 27.5154 79.5122 28.365 79.8641C29.2145 80.216 29.9864 80.7318 30.6367 81.382C31.2869 82.0322 31.8027 82.8042 32.1546 83.6537C32.5065 84.5033 32.6876 85.4138 32.6876 86.3333C32.6876 87.2529 32.5065 88.1634 32.1546 89.013C31.8027 89.8625 31.2869 90.6345 30.6367 91.2847M28.0187 56H29.75C30.9764 55.9997 32.1908 56.241 33.3238 56.7102C34.4568 57.1795 35.4863 57.8674 36.3533 58.7347L53.284 75.6654C55.0345 77.4153 56.0181 79.7889 56.0187 82.264V84M49.0467 70L86.5947 39.0787C88.1505 37.8024 89.2521 36.0574 89.7353 34.104L93.3053 19.8333C93.3464 19.6758 93.3456 19.5103 93.3029 19.3532C93.2603 19.1961 93.1773 19.0529 93.0622 18.9378C92.9471 18.8227 92.8039 18.7397 92.6468 18.6971C92.4897 18.6544 92.3242 18.6536 92.1667 18.6947L77.896 22.2647C75.9426 22.7479 74.1976 23.8495 72.9213 25.4053L42 62.9533M64.9133 13.5007C60.0133 10.724 57.5587 9.33334 56 9.33334C54.4413 9.33334 51.9913 10.7193 47.096 13.496C42.3593 16.184 37.3987 17.8453 32.5547 18.8673C22.9413 20.902 18.1347 21.9147 16.0673 24.4207C14 26.9267 14 30.8607 14 38.7193V46.4893M56 102.667C57.4684 102.667 58.912 102.474 60.3307 102.088C62.6173 101.467 64.7733 100.128 69.0807 97.44C78.7033 91.448 83.5147 88.4567 87.164 84.6067C91.6293 79.9091 94.8755 74.189 96.6187 67.9467C97.7853 63.7327 97.972 59.1873 98 51.3333M30.3333 81.6667L44.3333 67.6667" stroke="white" stroke-width="7" stroke-linecap="round" stroke-linejoin="round"/>
</svg>