<svg width="120" height="120" viewBox="0 0 120 120" fill="none" xmlns="http://www.w3.org/2000/svg">
<path d="M60 11.25C52.7325 11.25 47.1375 13.155 43.125 16.29C39.1125 19.425 36.795 23.64 35.1563 27.54C33.5138 31.4363 32.46 35.1713 31.4063 37.8525C30.3525 40.5338 29.4713 41.5725 28.71 41.835C18.105 45.6 11.25 55.7363 11.25 67.5V71.25H15C20.055 71.25 22.515 72.3038 23.6738 73.2413C24.8288 74.1788 25.2863 75.2475 25.5488 77.1113C25.8113 78.9713 25.68 81.24 26.0175 83.7863C26.19 85.0613 26.4563 86.4975 27.3038 87.8925C28.155 89.28 29.6925 90.48 31.4063 91.0538C35.3775 92.3738 37.9238 93.2063 39.4913 94.1025C41.0588 94.995 41.9963 95.8013 43.2413 98.4375C44.43 100.943 46.0238 103.68 48.8663 105.705C51.7088 107.726 55.5338 108.81 60.3525 108.75C68.2313 108.649 72.9338 104.576 75.3525 101.014C76.5675 99.2288 77.415 97.6913 78.165 96.6788C78.915 95.6663 79.365 95.2725 80.1563 95.04C85.2375 93.5138 88.5188 90.9375 90.3525 88.0088C92.1825 85.0763 92.535 82.2075 93.045 80.2725C93.5588 78.3413 93.9263 77.58 95.1563 76.7588C96.3863 75.9375 99.1988 75 105 75H108.75V71.25C108.75 66.0788 108.926 60.06 106.639 54.375C104.355 48.69 99.1538 43.6688 90.5888 41.7188C90.4988 41.7038 90.3938 41.7488 90 41.25C89.3693 40.3846 88.8572 39.4387 88.4775 38.4375C87.42 35.8125 86.4113 31.9763 84.7275 28.0088C83.04 24.0375 80.64 19.7588 76.6388 16.5225C72.645 13.2863 67.1513 11.25 60 11.25ZM60 18.75C65.775 18.75 69.3 20.2312 71.955 22.3837C74.6063 24.5363 76.38 27.555 77.8125 30.9375C79.245 34.32 80.2575 37.9838 81.5625 41.25C82.2075 42.8775 82.9125 44.4 84.0225 45.8213C85.1325 47.2425 86.76 48.6338 88.83 49.1025C95.58 50.64 98.085 53.4075 99.6113 57.1875C100.766 60.06 100.796 63.9975 100.898 67.8525C96.735 68.2013 93.3225 68.9513 90.9375 70.545C87.7725 72.6713 86.4375 75.9375 85.7813 78.3975C85.1213 80.8613 84.8738 82.6613 84.0225 84.0225C83.175 85.3875 81.7838 86.7338 77.9288 87.8925C75.2663 88.695 73.3463 90.5288 72.0713 92.2275C70.7963 93.9263 70.035 95.4788 69.1388 96.795C67.3538 99.435 66.0638 101.175 60.2325 101.25C56.5425 101.295 54.5663 100.575 53.2013 99.6075C51.84 98.6438 50.8463 97.2375 49.9238 95.2725C48.2513 91.7288 46.0125 89.1225 43.2413 87.54C40.4738 85.9575 37.5863 85.1775 33.75 83.9063C33.72 83.8463 33.5025 83.5688 33.3975 82.8525C33.21 81.4163 33.3225 78.8813 32.9288 76.0538C32.535 73.2263 31.3763 69.7988 28.3575 67.3838C26.25 65.685 23.2313 64.8338 19.6875 64.335C20.7863 57.1125 24.5813 51.21 31.1737 48.8663C35.1562 47.46 37.1175 43.9913 38.4375 40.665C39.7575 37.3388 40.695 33.6338 42.0713 30.3525C43.4475 27.0713 45.0713 24.3 47.6963 22.2675C50.3175 20.2275 54.0075 18.75 60 18.75ZM48.75 33.75C46.6875 33.75 45 36.27 45 39.375C45 42.48 46.6875 45 48.75 45C50.8125 45 52.5 42.48 52.5 39.375C52.5 36.27 50.8125 33.75 48.75 33.75ZM63.75 33.75C61.6875 33.75 60 36.27 60 39.375C60 42.48 61.6875 45 63.75 45C65.8125 45 67.5 42.48 67.5 39.375C67.5 36.27 65.8125 33.75 63.75 33.75Z" fill="#F8F8FF"/>
</svg>
