<svg width="112" height="112" viewBox="0 0 112 112" fill="none" xmlns="http://www.w3.org/2000/svg">
<path d="M44.3334 102.667C63.6633 102.667 79.3334 86.9966 79.3334 67.6667C79.3334 48.3367 63.6633 32.6667 44.3334 32.6667C25.0034 32.6667 9.33337 48.3367 9.33337 67.6667C9.33337 86.9966 25.0034 102.667 44.3334 102.667Z" stroke="#F8F8FF" stroke-width="7"/>
<path opacity="0.5" d="M79.3333 32.6667L70 42" stroke="#F8F8FF" stroke-width="7" stroke-linecap="round"/>
<path d="M83.9113 10.9807C84.1032 10.4948 84.4368 10.0778 84.8687 9.78401C85.3006 9.49019 85.8109 9.33307 86.3333 9.33307C86.8557 9.33307 87.366 9.49019 87.798 9.78401C88.2299 10.0778 88.5635 10.4948 88.7553 10.9807L91.8073 18.7273C92.0733 19.3947 92.6007 19.9267 93.2773 20.1927L101.019 23.2447C103.213 24.1127 103.213 27.2207 101.019 28.0887L93.2727 31.1407C92.941 31.2726 92.6398 31.4711 92.3878 31.7239C92.1358 31.9768 91.9382 32.2785 91.8073 32.6107L88.7553 40.3527C88.5635 40.8385 88.2299 41.2555 87.798 41.5493C87.366 41.8431 86.8557 42.0002 86.3333 42.0002C85.8109 42.0002 85.3006 41.8431 84.8687 41.5493C84.4368 41.2555 84.1032 40.8385 83.9113 40.3527L80.8593 32.606C80.7274 32.2743 80.5289 31.9731 80.2761 31.7211C80.0232 31.4691 79.7214 31.2715 79.3893 31.1407L71.6473 28.0887C71.1615 27.8968 70.7445 27.5632 70.4507 27.1313C70.1569 26.6994 69.9998 26.189 69.9998 25.6667C69.9998 25.1443 70.1569 24.6339 70.4507 24.202C70.7445 23.7701 71.1615 23.4365 71.6473 23.2447L79.394 20.1927C79.7257 20.0607 80.0268 19.8622 80.2789 19.6094C80.5309 19.3565 80.7284 19.0548 80.8593 18.7227L83.9113 10.9807Z" stroke="#F8F8FF" stroke-width="7"/>
</svg>
